<?xml version="1.0" encoding="utf-8"?>
<!-- Generator: Adobe Illustrator 16.0.0, SVG Export Plug-In . SVG Version: 6.00 Build 0)  -->
<!DOCTYPE svg PUBLIC "-//W3C//DTD SVG 1.1//EN" "http://www.w3.org/Graphics/SVG/1.1/DTD/svg11.dtd">
<svg version="1.1" xmlns="http://www.w3.org/2000/svg" xmlns:xlink="http://www.w3.org/1999/xlink" x="0px" y="0px" width="128px"
	 height="128px" viewBox="0 0 128 128" enable-background="new 0 0 128 128" xml:space="preserve">
<g id="Guide_line">
</g>
<g id="Icon">
	<g id="g2193_3_" transform="translate(-2672.4487,-836.66045)">
		<g id="path1803-1-2_3_">
			<path d="M2736.448,937.117c-0.971,0-1.943-0.351-2.713-1.062c-1.623-1.499-1.724-4.029-0.225-5.652l59.945-64.906
				c1.498-1.623,4.028-1.725,5.652-0.225c1.623,1.499,1.724,4.029,0.225,5.652l-59.945,64.906
				C2738.599,936.684,2737.525,937.117,2736.448,937.117z"/>
		</g>
		<g id="path1805-1-8_3_">
			<path d="M2736.45,937.117c-1.077,0-2.15-0.433-2.939-1.286l-59.949-64.906c-1.499-1.623-1.398-4.153,0.225-5.652
				c1.622-1.497,4.152-1.397,5.652,0.225l59.949,64.906c1.499,1.623,1.398,4.153-0.225,5.652
				C2738.394,936.765,2737.42,937.117,2736.45,937.117z"/>
		</g>
	</g>
</g>
</svg>
