<?xml version="1.0" encoding="utf-8"?>
<!-- Generator: Adobe Illustrator 28.1.0, SVG Export Plug-In . SVG Version: 6.00 Build 0)  -->
<svg version="1.1" xmlns="http://www.w3.org/2000/svg" xmlns:xlink="http://www.w3.org/1999/xlink" x="0px" y="0px"
	 viewBox="0 0 1920 1080" style="enable-background:new 0 0 1920 1080;" xml:space="preserve">
<style type="text/css">
	.st0{fill:#0071BC;}
	.st1{opacity:0.18;}
	.st2{fill:#FFFFFF;}
	.st3{fill:#1B3B66;}
	.st4{display:none;fill:#004370;}
	.st5{display:none;opacity:0.18;}
	.st6{display:none;fill:#1B3B66;}
	.st7{fill:#FFFFFF;stroke:#000000;stroke-width:6;stroke-miterlimit:10;}
	.st8{display:none;opacity:0.18;fill:#FFFFFF;stroke:#000000;stroke-width:6;stroke-miterlimit:10;}
	.st9{display:none;}
</style>
<g id="Layer_2">
</g>
<g id="Layer_4">
</g>
<g id="Full">
	<g id="WLOGO">
		<g id="Right_Distant">
			<path class="st0" d="M1177.68,560.71c-0.79,1.36-2.67,1.63-2.92,1.68c-2.76,0.56-11.31,14.12-20.83,26.85
				c-5.76,7.71-11.87,15.12-17.26,19.15c-3.45,2.58-7.41,4.39-11.61,5.54c-12.3,3.38-26.68,1.17-36.39-3.54
				c-14.94-7.25-24.32-23.06-39.09-48c-1.24-2.08-2.24-3.83-2.92-5.04l32.5-56.29l30.1-52.13c1.29-2.24,4.53-2.24,5.82,0
				l26.62,46.11l4.37,7.57l23.14,40.08l8.47,14.66C1178.32,558.47,1178.24,559.73,1177.68,560.71z"/>
			<polygon class="st1" points="1183.77,498.33 1169.21,542.69 1153.93,589.24 1143.81,620.09 1125.06,613.93 1104.85,607.3 
				1109.04,594.54 1141.7,495.04 1146.07,502.61 1150.81,487.51 			"/>
		</g>
		<g id="Left_Distant">
			<path class="st0" d="M902.09,560.34c-0.79,1.36-2.67,1.63-2.92,1.68c-2.76,0.56-11.31,14.12-20.83,26.85
				c-5.76,7.71-11.87,15.12-17.26,19.15c-3.45,2.58-7.41,4.39-11.61,5.54c-12.3,3.38-26.68,1.17-36.39-3.54
				c-14.94-7.25-24.32-23.06-39.09-48c-1.24-2.08-2.24-3.83-2.92-5.04l32.5-56.29l30.1-52.13c1.29-2.24,4.53-2.24,5.82,0
				l26.62,46.11l4.37,7.57l23.14,40.08l8.47,14.66C902.73,558.1,902.65,559.36,902.09,560.34z"/>
			<polygon class="st1" points="908.18,497.96 893.62,542.32 878.34,588.87 868.22,619.72 849.47,613.56 829.26,606.93 
				833.45,594.17 866.11,494.67 870.48,502.24 875.22,487.14 			"/>
		</g>
		<path id="W" d="M1295.7,405.58l-19.45,21.12l-50-26.88l-19.1,36.48l-31.4-28.36l-24.94,79.57l-4.74,15.1l-27.68,88.31
			c-0.2,0.67-0.66,1.81-1.78,2.74c-1.97,1.64-5.15,1.93-7.57,0.88c-0.57-0.24-1.09-0.56-1.55-0.95c-1.09-0.94-1.53-2.09-1.72-2.76
			l-26.61-89.77l-23.53-79.36l-26.6-18.04l-38.89,24.95l-52.78-44.14l-33.33,47.99l-8.76-9.09l-52.32,164.82
			c-1.85,5.84-10.85,5.77-12.61-0.08l-49.61-165.25h-21.38l-13.65-9.6l-33.34-15.35l-44.44,24.95l-35.09-17.87l119.3,380.7
			c0.81,2.59,3.38,4.37,6.3,4.37h139.03c2.93,0,5.5-1.79,6.3-4.38l62.21-199.64c1.83-5.86,10.88-5.81,12.63,0.09l59.02,199.48
			c0.78,2.63,3.37,4.45,6.33,4.45h138.96c2.92,0,5.49-1.78,6.3-4.37l116.66-372.26L1295.7,405.58z"/>
		<g id="Whitecaps">
			<g>
				<path class="st2" d="M899.23,422.45l15.13-47.66c0.35-1.12,1.57-1.9,2.95-1.9h117.79c1.41,0,2.64,0.8,2.97,1.94l11.41,38.48
					l-20.41-13.84l-38.89,24.95l-51.56-34.86l-34.66,37.78L899.23,422.45z"/>
				<path d="M1034.89,376.39l8.46,28.53l-10.4-7.05l-3.82-2.59l-3.89,2.49l-35.01,22.46l-47.15-31.88l-5-3.38l-4.08,4.45
					l-30.11,32.82l-0.7-0.72l14.33-45.13H1034.89 M1035.11,369.39H917.32c-2.91,0-5.48,1.77-6.29,4.34l-15.76,49.65l8.76,9.08
					l35.14-38.3l50.97,34.46l38.89-24.95l26.6,18.03l-14.19-47.87C1040.66,371.21,1038.07,369.39,1035.11,369.39L1035.11,369.39z"/>
			</g>
			<g>
				<path class="st2" d="M760.29,419.86l-13.1-9.21l-34.98-16.11l-44.37,24.91l-32.54-16.57l-8.36-26.69
					c-0.35-1.1,0.11-1.96,0.42-2.38c0.66-0.9,1.79-1.43,3.02-1.43h129.3c1.63,0,3.05,0.94,3.45,2.28l13.56,45.19H760.29z"/>
				<path d="M759.69,375.39c0.33,0,0.53,0.13,0.59,0.19l12.39,41.28h-11.42l-12.1-8.51l-0.45-0.31l-0.5-0.23l-33.34-15.35
					l-2.78-1.28l-2.67,1.5l-41.64,23.38l-29.98-15.27l-7.92-25.27c0.09-0.06,0.26-0.13,0.51-0.13H759.69 M759.69,369.39h-129.3
					c-4.37,0-7.51,3.85-6.3,7.71l8.74,27.89l35.09,17.87l44.44-24.95l33.34,15.35l13.65,9.6h21.38l-14.72-49.05
					C765.23,371.2,762.64,369.39,759.69,369.39L759.69,369.39z"/>
			</g>
			<g>
				<path class="st2" d="M1179.18,407l10.15-32.35c0.42-1.33,1.83-2.25,3.44-2.25h118.18c1.23,0,2.36,0.54,3.02,1.43
					c0.31,0.42,0.77,1.28,0.42,2.38l-10.09,32.22l-8.94-6.9l-19.74,21.43l-45.2-24.3l-23.75,33.16L1179.18,407z"/>
				<path d="M1310.95,375.39c0.25,0,0.41,0.07,0.51,0.13l-8.74,27.9l-3.35-2.59l-4.35-3.36l-3.73,4.05l-16.3,17.7l-40.83-21.95
					l-4.65-2.5l-3.07,4.29l-20.26,28.29l-23.56-21.28l9.56-30.48c0.05-0.06,0.25-0.2,0.59-0.2H1310.95 M1310.95,369.39h-118.18
					c-2.92,0-5.49,1.78-6.3,4.36l-10.72,34.19l31.4,28.36l24.17-33.75l44.93,24.15l19.45-21.12l10.17,7.85l11.38-36.33
					C1318.46,373.24,1315.32,369.39,1310.95,369.39L1310.95,369.39z"/>
			</g>
		</g>
		<g id="TREE">
			<path class="st3" d="M916.67,716.39v73.67h-51.14c15.23-23.41,30.44-46.83,45.66-70.25
				C913.02,718.67,914.84,717.53,916.67,716.39z"/>
			<path class="st3" d="M944.67,625.39c-0.34-0.27-1.46-1.08-3-1c-1.71,0.09-3.26,1.27-4,3c-21.71,33.61-42.77,66.21-63.3,98
				c22.1,0,44.2,0,66.3,0c0-4,0-8,0-12C940.67,685.06,944.67,653.72,944.67,625.39z"/>
			<path class="st3" d="M975.67,531.39c-1.83,1.14-3.65,2.28-5.48,3.42c-20.27,31.19-40.55,62.38-60.82,93.58c22.1,0,44.2,0,66.3,0
				c0-4,0-8,0-12C975.67,588.06,975.67,559.72,975.67,531.39z"/>
			<polygon class="st0" points="976.17,531.39 917.67,624.39 1034.67,624.39 			"/>
			<polygon class="st0" points="975.52,570.39 883.38,720.39 1067.67,720.39 			"/>
			<polygon id="shadow" class="st4" points="864.99,794.39 976.65,616.88 1088.31,794.39 			"/>
			<polygon class="st0" points="976.65,624.39 872.23,790.39 1081.07,790.39 			"/>
		</g>
	</g>
</g>
<g id="Black_on_W">
</g>
</svg>
